<?xml version="1.0" standalone="no"?>
<!DOCTYPE svg PUBLIC "-//W3C//DTD SVG 20010904//EN"
 "http://www.w3.org/TR/2001/REC-SVG-20010904/DTD/svg10.dtd">
<svg version="1.0" xmlns="http://www.w3.org/2000/svg"
 width="512.000000pt" height="152.000000pt" viewBox="0 0 512.000000 152.000000"
 preserveAspectRatio="xMidYMid meet">

<g transform="translate(0.000000,152.000000) scale(0.100000,-0.100000)"
fill="#000000" stroke="none">
<path d="M1122 1293 c-23 -9 -44 -64 -37 -99 11 -60 70 -82 119 -43 20 16 26
29 26 60 0 63 -54 104 -108 82z"/>
<path d="M2192 1280 c-58 -55 -29 -160 44 -160 68 0 101 103 49 155 -29 30
-64 32 -93 5z"/>
<path d="M4992 1087 c-32 -34 -30 -100 3 -132 32 -33 60 -31 97 5 27 27 30 36
25 71 -3 22 -13 49 -23 60 -24 27 -75 25 -102 -4z"/>
<path d="M166 1005 c-56 -20 -107 -65 -136 -121 -24 -46 -25 -57 -28 -261 l-4
-213 71 0 71 0 0 195 c0 209 5 237 52 269 33 23 100 20 133 -6 48 -38 55 -70
55 -273 l0 -185 70 0 71 0 -2 194 c-1 208 4 236 53 270 36 25 101 20 137 -10
43 -36 51 -77 51 -276 l0 -178 66 0 65 0 -3 218 c-3 200 -5 220 -25 257 -46
86 -128 134 -228 135 -63 0 -146 -30 -173 -63 -13 -15 -17 -14 -50 12 -21 16
-52 34 -71 40 -46 15 -127 13 -175 -4z"/>
<path d="M1090 715 l0 -305 65 0 65 0 0 305 0 305 -65 0 -65 0 0 -305z"/>
<path d="M1586 1006 c-57 -21 -108 -67 -136 -122 -24 -46 -25 -57 -28 -261
l-3 -213 70 0 71 0 0 190 c0 205 7 243 51 274 29 20 91 21 129 1 56 -29 64
-60 68 -272 l4 -193 64 0 64 0 0 200 c0 176 -2 206 -20 254 -22 57 -63 102
-123 132 -43 23 -161 28 -211 10z"/>
<path d="M2160 715 l0 -305 60 0 60 0 0 305 0 305 -60 0 -60 0 0 -305z"/>
<path d="M2669 992 c-66 -34 -114 -94 -128 -162 -6 -28 -11 -134 -11 -235 l0
-185 64 0 64 0 4 193 c4 205 12 237 60 271 33 23 100 20 133 -6 48 -38 55 -70
55 -273 l0 -185 65 0 65 0 0 173 c0 191 8 237 50 279 59 59 166 25 190 -60 5
-20 10 -117 10 -214 l0 -178 66 0 65 0 -3 218 c-3 200 -5 220 -25 257 -78 145
-261 178 -404 74 -13 -10 -23 -7 -50 13 -77 57 -184 65 -270 20z"/>
<path d="M3817 1006 c-119 -43 -195 -143 -204 -270 -12 -171 107 -312 277
-324 133 -9 246 54 304 170 32 63 35 167 9 244 -23 67 -110 154 -177 177 -59
20 -156 21 -209 3z m177 -130 c18 -8 46 -31 62 -52 26 -33 29 -46 29 -109 0
-63 -3 -76 -28 -108 -37 -49 -75 -67 -137 -67 -59 0 -119 27 -143 63 -81 123
-3 287 136 287 26 0 63 -6 81 -14z"/>
<path d="M4604 1000 c-60 -24 -135 -96 -166 -159 -33 -67 -32 -187 1 -255 52
-105 142 -166 257 -174 97 -6 158 15 228 79 70 64 100 130 100 224 0 115 -56
210 -163 273 -61 36 -182 42 -257 12z m207 -133 c18 -12 44 -38 57 -57 20 -30
23 -44 20 -102 -4 -75 -21 -107 -78 -145 -46 -32 -134 -32 -181 0 -57 38 -79
81 -79 152 0 71 22 114 79 152 47 32 135 32 182 0z"/>
<path d="M4414 268 c16 -102 89 -198 185 -241 64 -29 178 -29 242 0 96 43 169
139 183 241 l6 42 -70 0 c-70 0 -70 0 -70 -27 -1 -75 -88 -153 -170 -153 -44
0 -118 36 -143 71 -10 14 -21 44 -24 67 l-6 42 -70 0 -70 0 7 -42z"/>
</g>
</svg>
