<?xml version="1.0" encoding="utf-8"?>
<!-- Generator: Adobe Illustrator 24.3.0, SVG Export Plug-In . SVG Version: 6.00 Build 0)  -->
<svg version="1.1" id="Layer_1" xmlns="http://www.w3.org/2000/svg" xmlns:xlink="http://www.w3.org/1999/xlink" x="0px" y="0px"
	 viewBox="0 0 1584 2196" style="enable-background:new 0 0 1584 2196;" xml:space="preserve">
<style type="text/css">
	.st0{fill:#4C4B4B;}
</style>
<path class="st0" d="M729.32,1094.32l10.2,24H725.6l-10.44-28.44l-0.22-0.63c4.04-1,6.74-4.11,6.05-6.99
	c-0.69-2.9-4.57-4.46-8.66-3.48c-0.33,0.08-0.64,0.17-0.95,0.27l-4.26-12.21h16.63c0,0,17.83,0.36,17.81,12.84
	C741.54,1090.86,729.32,1094.32,729.32,1094.32z"/>
<path class="st0" d="M765.54,1068.2c-13.24,0-23.98,10.74-23.98,23.98s10.74,23.98,23.98,23.98c13.24,0,23.98-10.74,23.98-23.98
	S778.78,1068.2,765.54,1068.2z M765.54,1102.01c-5.2,0-9.42-4.22-9.42-9.43c0-5.2,4.22-9.42,9.42-9.42c5.2,0,9.42,4.22,9.42,9.42
	C774.96,1097.79,770.74,1102.01,765.54,1102.01z"/>
<path class="st0" d="M817.98,1083.56c0.59,0,1.18,0.06,1.74,0.16v-15.05c-0.57-0.05-1.15-0.07-1.74-0.07
	c-13.24,0-23.98,10.74-23.98,23.98s10.74,23.98,23.98,23.98c0.59,0,1.17-0.02,1.74-0.07v-14.23c-0.56,0.1-1.15,0.16-1.74,0.16
	c-5.2,0-9.42-4.22-9.42-9.43C808.56,1087.79,812.78,1083.56,817.98,1083.56z"/>
<polygon class="st0" points="837.52,1085.92 870.64,1085.92 870.64,1066.84 886.12,1066.84 886.12,1098 852.64,1098 852.82,1118.28 
	837.52,1118.32 "/>
<rect x="835.84" y="1065.4" class="st0" width="18.24" height="8.88"/>
<rect x="868.36" y="1110.76" class="st0" width="18.24" height="8.88"/>
</svg>
